<svg id="AerTek_Logo" data-name="AerTek Logo" xmlns="http://www.w3.org/2000/svg" viewBox="0 0 350 350"><defs><style>.cls-1{fill:#231f20}</style></defs><title>AerTek Logo</title><path class="cls-1" d="M60.69 277.82h-21.2l-3.92 7.68H27l23.05-45.94 23.06 45.94h-8.57zm-17.41-7.61h13.55l-6.78-13.5zm75.97-30.65v7.68H96.2v11.52h23.05v7.61H96.2v11.45h23.05v7.68H88.56v-45.94zm45.01 45.94l-8.9-15.29h-13v15.29h-7.66v-45.94h23.05A15.31 15.31 0 0 1 163.6 269l9.5 16.48zm-6.51-38.26h-15.41v15.22l15.41.07a7.65 7.65 0 0 0 0-15.29zm26.79-7.68H223v7.68h-15.34v38.26H200v-38.26h-15.46zm84.61 0v7.68h-23.06v11.52h23.06v7.61h-23.06v11.45h23.06v7.68h-30.7v-45.94zm30.79 22.97l23.06 23h-10.83l-19.93-19.72v19.69h-7.64v-45.94h7.64v19.79l19.93-19.79H323zm-49.81-91.82L143.59 64.5 54.7 153.06v26.59l88.83-88.5 79.85 79.56h26.75zm39.22 23.71H73.63L54.7 213.28h253.59l-18.94-18.86z"/><path class="cls-1" d="M267.99 173.14h-173L76.06 192h210.86l-18.93-18.86z"/><path class="cls-1" d="M219.95 170.71l-76.42-76.14-88.83 88.5v26.76l88.89-88.54 49.67 49.42h26.69z"/></svg>